<svg xmlns="http://www.w3.org/2000/svg" viewBox="0 0 640 760" role="img" aria-label="Leicester Space Week reverse logo"><g fill="none" stroke-linecap="round" stroke-linejoin="round"><ellipse cx="320" cy="250" rx="230" ry="78" transform="rotate(-18 320 250)" stroke="#C9CED6" stroke-width="5"/><circle cx="524" cy="184" r="8" fill="#E2672A"/><path d="M158 175 255 85l65 112L385 85l97 90-29 251c-42 49-83 73-133 73s-91-24-133-73z" stroke="#E2672A" stroke-width="16"/><path d="m255 85 4 144m126-144-4 144M211 313c32 29 61 43 109 43s77-14 109-43M250 410c21 10 43 15 70 15s49-5 70-15" stroke="#E2672A" stroke-width="12"/><path d="M120 536h400M146 536v-44h38v44m19 0v-86h42v86m22 0v-123h43v123m22 0v-62h46v62m21 0v-91h35v91m21 0v-48h30v48" stroke="#C9CED6" stroke-width="8"/></g><text x="320" y="635" text-anchor="middle" fill="#F4F2ED" font-family="Arial, sans-serif" font-size="44" font-weight="700" letter-spacing="8">LEICESTER</text><text x="320" y="692" text-anchor="middle" fill="#F4F2ED" font-family="Arial, sans-serif" font-size="54" font-weight="700" letter-spacing="2">SPACE WEEK</text></svg>
